<?xml version="1.0" encoding="UTF-8"?><svg id="Layer_2" xmlns="http://www.w3.org/2000/svg" viewBox="0 0 703 350"><defs><style>.cls-1{fill:#fff;}</style></defs><g id="logo"><g id="light"><path id="_9" class="cls-1" d="M500.535.003c-3.287,0-8.505-.003-22.535-.003v199.5l28.5,28.5h77v-83h-23v-60h60v60h-23v97h-91l-28.5,28.5v79.5h225V0l-202.465.003ZM693.337,310.362h-16.992v12.533h16.992v17.93h-44.513v-17.93h17.438v-12.533h-17.438v-17.93h44.513v17.93ZM693.337,287.121h-10.195l-.056-22.978h-24.066v22.978h-10.195v-28.983c0-7.92,1.895-11.924,7.02-11.924h30.418c5.125,0,7.075,4.004,7.075,11.924v28.983ZM693.337,240.031h-10.195v-22.455h-6.797v22.455h-10.139v-22.455h-7.187v22.455h-10.195v-40.385h44.513v40.385ZM693.337,194.683h-10.195v-14.884h-34.317v-17.929h34.317v-14.883h10.195v47.696Z"/><g id="_8"><path id="_8-2" class="cls-1" d="M464,242h-82.499v23h-60c-.111-1.084,0-60,0-60h23v-60h-23v-23h-82.499c-.006,76.772.006,151.231,0,228h224.998v-108Z"/><polyline id="_8-3" class="cls-1" points="464 0 464 228 381.5 228 381.5 205 358.5 205 358.5 145 381.5 145 381.5 85 321.5 85 321.5 108 239 108 239 0 239.002 0"/></g><g id="_7"><path id="_7-2" class="cls-1" d="M68.5,350h108c16.631-56.954,48.5-170,48.5-170v-29.5l-28.5-28.5h-62.95l-65.05,228Z"/><path id="_7-3" class="cls-1" d="M225,79.5V0H0v79.5s28.5,28.5,28.5,28.5h168c.579,0,28.5-28.5,28.5-28.5Z"/></g></g></g></svg>