<?xml version="1.0" encoding="UTF-8"?><svg id="Layer_2" xmlns="http://www.w3.org/2000/svg" viewBox="0 0 703.111 416.121"><defs><style>.cls-1{fill:#fff;}</style></defs><g id="logo"><g id="light"><path id="_9" class="cls-1" d="M478,350v-79.5l28.5-28.5h91v-97h23v-60h-60v60h23v83h-77l-28.5-28.5V0c14.03,0,19.248.003,22.535.003l202.465-.003v350"/><g id="_8"><path id="_8-2" class="cls-1" d="M464,242h-82.499v23h-60c-.111-1.084,0-60,0-60h23v-60h-23v-23h-82.499c-.006,76.772.006,151.231,0,228h224.998v-108Z"/><polyline id="_8-3" class="cls-1" points="464 0 464 228 381.5 228 381.5 205 358.5 205 358.5 145 381.5 145 381.5 85 321.5 85 321.5 108 239 108 239 0 239.002 0"/></g><g id="_7"><path id="_7-2" class="cls-1" d="M68.5,350h108c16.631-56.954,48.5-170,48.5-170v-29.5l-28.5-28.5h-62.95l-65.05,228Z"/><path id="_7-3" class="cls-1" d="M225,79.5V0H0v79.5s28.5,28.5,28.5,28.5h168c.579,0,28.5-28.5,28.5-28.5Z"/></g><path class="cls-1" d="M464.03,374.237h-22.354v41.884h-26.929v-41.884h-22.354v-12.442h71.636v12.442Z"/><path class="cls-1" d="M538.669,416.121h-60.655v-54.326h60.655v12.442h-33.726v8.296h33.726v12.374h-33.726v8.771h33.726v12.442Z"/><path class="cls-1" d="M615.922,416.121h-43.53c-11.896,0-17.909-2.312-17.909-8.566v-37.125c0-6.255,6.014-8.635,17.909-8.635h43.53v12.442l-34.511.068v29.373h34.511v12.442Z"/><path class="cls-1" d="M703.111,416.121h-26.929v-21.281h-18.824v21.281h-26.929v-54.326h26.929v20.738h18.824v-20.738h26.929v54.326Z"/></g></g></svg>